<svg id="visual" viewBox="0 0 900 600" width="900" height="600" xmlns="http://www.w3.org/2000/svg" xmlns:xlink="http://www.w3.org/1999/xlink" version="1.1"><g stroke-width="0.1" stroke-linejoin="bevel"><path d="M446 283L448 238L370.5 215Z" fill="#1979f2" stroke="#7db4f7"></path><path d="M370.5 215L297.5 279L446 283Z" fill="#1977f2" stroke="#7db4f7"></path><path d="M448 238L364.5 152L370.5 215Z" fill="#1a7af2" stroke="#7db4f7"></path><path d="M370.5 215L252 261L297.5 279Z" fill="#1a7bf2" stroke="#7db4f7"></path><path d="M396 410L527.5 305L446 283Z" fill="#1b7cf2" stroke="#7db4f7"></path><path d="M446 283L527.5 305L448 238Z" fill="#1b71f2" stroke="#7db4f7"></path><path d="M448 238L489 126L364.5 152Z" fill="#1975f2" stroke="#7db4f7"></path><path d="M364.5 152L252 261L370.5 215Z" fill="#1a72f2" stroke="#7db4f7"></path><path d="M283.5 365L396 410L297.5 279Z" fill="#1a73f2" stroke="#7db4f7"></path><path d="M297.5 279L396 410L446 283Z" fill="#1975f2" stroke="#7db4f7"></path><path d="M252 261L283.5 365L297.5 279Z" fill="#1978f2" stroke="#7db4f7"></path><path d="M588.5 251L489 126L448 238Z" fill="#1a73f2" stroke="#7db4f7"></path><path d="M527.5 305L588.5 251L448 238Z" fill="#1b7cf2" stroke="#7db4f7"></path><path d="M364.5 152L215 218L252 261Z" fill="#1979f2" stroke="#7db4f7"></path><path d="M252 261L200 353L283.5 365Z" fill="#1975f2" stroke="#7db4f7"></path><path d="M139.5 257L200 353L252 261Z" fill="#1b71f2" stroke="#7db4f7"></path><path d="M283.5 365L345.5 502L396 410Z" fill="#1a7bf2" stroke="#7db4f7"></path><path d="M698 322L624 237L588.5 251Z" fill="#1975f2" stroke="#7db4f7"></path><path d="M588.5 251L624 237L489 126Z" fill="#1a7bf2" stroke="#7db4f7"></path><path d="M593.5 403L588.5 251L527.5 305Z" fill="#1a7bf2" stroke="#7db4f7"></path><path d="M396 410L593.5 403L527.5 305Z" fill="#1b71f2" stroke="#7db4f7"></path><path d="M274 548L345.5 502L283.5 365Z" fill="#1a73f2" stroke="#7db4f7"></path><path d="M396 410L529.5 494L593.5 403Z" fill="#1b7cf2" stroke="#7db4f7"></path><path d="M212 59L144.5 217L215 218Z" fill="#1a7af2" stroke="#7db4f7"></path><path d="M215 218L139.5 257L252 261Z" fill="#1978f2" stroke="#7db4f7"></path><path d="M144.5 217L139.5 257L215 218Z" fill="#1b71f2" stroke="#7db4f7"></path><path d="M443 0L367.5 0L364.5 152Z" fill="#1977f2" stroke="#7db4f7"></path><path d="M364.5 152L212 59L215 218Z" fill="#1a73f2" stroke="#7db4f7"></path><path d="M443 0L364.5 152L489 126Z" fill="#1a7bf2" stroke="#7db4f7"></path><path d="M603.5 60L443 0L489 126Z" fill="#1979f2" stroke="#7db4f7"></path><path d="M443 546L529.5 494L396 410Z" fill="#1979f2" stroke="#7db4f7"></path><path d="M367.5 0L212 59L364.5 152Z" fill="#1976f2" stroke="#7db4f7"></path><path d="M624 237L603.5 60L489 126Z" fill="#1b71f2" stroke="#7db4f7"></path><path d="M345.5 502L443 546L396 410Z" fill="#1a7af2" stroke="#7db4f7"></path><path d="M529.5 494L623 463L593.5 403Z" fill="#1a7af2" stroke="#7db4f7"></path><path d="M593.5 403L698 322L588.5 251Z" fill="#1a7bf2" stroke="#7db4f7"></path><path d="M653 600L623 463L529.5 494Z" fill="#1975f2" stroke="#7db4f7"></path><path d="M696 413L698 322L593.5 403Z" fill="#1a7af2" stroke="#7db4f7"></path><path d="M624 237L638 62L603.5 60Z" fill="#1979f2" stroke="#7db4f7"></path><path d="M728.5 150L638 62L624 237Z" fill="#1a73f2" stroke="#7db4f7"></path><path d="M603.5 60L596.5 0L443 0Z" fill="#1978f2" stroke="#7db4f7"></path><path d="M139.5 257L105.5 370L200 353Z" fill="#1b71f2" stroke="#7db4f7"></path><path d="M140.5 498L274 548L283.5 365Z" fill="#1975f2" stroke="#7db4f7"></path><path d="M0 243L105.5 370L139.5 257Z" fill="#1b7cf2" stroke="#7db4f7"></path><path d="M140.5 498L283.5 365L200 353Z" fill="#1975f2" stroke="#7db4f7"></path><path d="M284.5 600L452 600L443 546Z" fill="#1a7bf2" stroke="#7db4f7"></path><path d="M367.5 0L209 0L212 59Z" fill="#1975f2" stroke="#7db4f7"></path><path d="M212 59L61.5 93L144.5 217Z" fill="#1979f2" stroke="#7db4f7"></path><path d="M638 62L596.5 0L603.5 60Z" fill="#1979f2" stroke="#7db4f7"></path><path d="M623 463L696 413L593.5 403Z" fill="#1a7bf2" stroke="#7db4f7"></path><path d="M284.5 600L443 546L345.5 502Z" fill="#1975f2" stroke="#7db4f7"></path><path d="M443 546L537.5 600L529.5 494Z" fill="#1978f2" stroke="#7db4f7"></path><path d="M623 463L756.5 538L696 413Z" fill="#1976f2" stroke="#7db4f7"></path><path d="M760.5 218L728.5 150L624 237Z" fill="#1979f2" stroke="#7db4f7"></path><path d="M638 62L676 0L596.5 0Z" fill="#1976f2" stroke="#7db4f7"></path><path d="M760.5 218L624 237L698 322Z" fill="#1975f2" stroke="#7db4f7"></path><path d="M105.5 370L140.5 498L200 353Z" fill="#1975f2" stroke="#7db4f7"></path><path d="M224 600L284.5 600L274 548Z" fill="#1978f2" stroke="#7db4f7"></path><path d="M274 548L284.5 600L345.5 502Z" fill="#1977f2" stroke="#7db4f7"></path><path d="M784.5 349L760.5 218L698 322Z" fill="#1a7bf2" stroke="#7db4f7"></path><path d="M452 600L537.5 600L443 546Z" fill="#1978f2" stroke="#7db4f7"></path><path d="M93.5 0L61.5 93L212 59Z" fill="#1a73f2" stroke="#7db4f7"></path><path d="M0 229L0 243L139.5 257Z" fill="#1b7cf2" stroke="#7db4f7"></path><path d="M835.5 0L676 0L728.5 150Z" fill="#1b7cf2" stroke="#7db4f7"></path><path d="M728.5 150L676 0L638 62Z" fill="#1a72f2" stroke="#7db4f7"></path><path d="M140.5 498L224 600L274 548Z" fill="#1a72f2" stroke="#7db4f7"></path><path d="M793.5 430L784.5 349L696 413Z" fill="#1b71f2" stroke="#7db4f7"></path><path d="M696 413L784.5 349L698 322Z" fill="#1a73f2" stroke="#7db4f7"></path><path d="M0 229L139.5 257L144.5 217Z" fill="#1979f2" stroke="#7db4f7"></path><path d="M105.5 370L0 404L140.5 498Z" fill="#1a7af2" stroke="#7db4f7"></path><path d="M209 0L93.5 0L212 59Z" fill="#1a7bf2" stroke="#7db4f7"></path><path d="M61.5 93L0 229L144.5 217Z" fill="#1b7cf2" stroke="#7db4f7"></path><path d="M0 121L0 229L61.5 93Z" fill="#1976f2" stroke="#7db4f7"></path><path d="M0 0L0 121L61.5 93Z" fill="#1976f2" stroke="#7db4f7"></path><path d="M537.5 600L653 600L529.5 494Z" fill="#1b7cf2" stroke="#7db4f7"></path><path d="M0 243L0 404L105.5 370Z" fill="#1978f2" stroke="#7db4f7"></path><path d="M140.5 498L84.5 600L224 600Z" fill="#1a7af2" stroke="#7db4f7"></path><path d="M756.5 538L793.5 430L696 413Z" fill="#1a7af2" stroke="#7db4f7"></path><path d="M653 600L756.5 538L623 463Z" fill="#1a73f2" stroke="#7db4f7"></path><path d="M0 532L84.5 600L140.5 498Z" fill="#1a73f2" stroke="#7db4f7"></path><path d="M93.5 0L0 0L61.5 93Z" fill="#1a72f2" stroke="#7db4f7"></path><path d="M0 404L0 532L140.5 498Z" fill="#1a72f2" stroke="#7db4f7"></path><path d="M900 292L900 241L760.5 218Z" fill="#1a7af2" stroke="#7db4f7"></path><path d="M760.5 218L900 78L728.5 150Z" fill="#1b71f2" stroke="#7db4f7"></path><path d="M900 292L760.5 218L784.5 349Z" fill="#1979f2" stroke="#7db4f7"></path><path d="M900 292L784.5 349L900 340Z" fill="#1a7af2" stroke="#7db4f7"></path><path d="M900 340L784.5 349L793.5 430Z" fill="#1a73f2" stroke="#7db4f7"></path><path d="M900 78L835.5 0L728.5 150Z" fill="#1979f2" stroke="#7db4f7"></path><path d="M900 512L900 340L793.5 430Z" fill="#1979f2" stroke="#7db4f7"></path><path d="M653 600L794.5 600L756.5 538Z" fill="#1978f2" stroke="#7db4f7"></path><path d="M756.5 538L900 512L793.5 430Z" fill="#1975f2" stroke="#7db4f7"></path><path d="M0 532L0 600L84.5 600Z" fill="#1979f2" stroke="#7db4f7"></path><path d="M900 241L900 78L760.5 218Z" fill="#1b7cf2" stroke="#7db4f7"></path><path d="M794.5 600L900 512L756.5 538Z" fill="#1a73f2" stroke="#7db4f7"></path><path d="M900 78L900 0L835.5 0Z" fill="#1977f2" stroke="#7db4f7"></path><path d="M794.5 600L900 600L900 512Z" fill="#1b7cf2" stroke="#7db4f7"></path></g></svg>